<svg width="400" height="300" viewBox="0 0 400 300" fill="none" xmlns="http://www.w3.org/2000/svg">
    <defs>
        <linearGradient id="gradient1" x1="0%" y1="0%" x2="100%" y2="0%">
            <stop offset="0%" stop-color="#6c31ff" />
            <stop offset="100%" stop-color="#2b3af9" />
        </linearGradient>
        <linearGradient id="gradient2" x1="0%" y1="0%" x2="100%" y2="0%">
            <stop offset="0%" stop-color="#2b3af9" />
            <stop offset="100%" stop-color="#00c8ff" />
        </linearGradient>
        <linearGradient id="gradient3" x1="0%" y1="0%" x2="100%" y2="0%">
            <stop offset="0%" stop-color="#00c8ff" />
            <stop offset="100%" stop-color="#00e376" />
        </linearGradient>
        <filter id="glow" x="-20%" y="-20%" width="140%" height="140%">
            <feGaussianBlur stdDeviation="5" result="blur" />
            <feComposite in="SourceGraphic" in2="blur" operator="over" />
        </filter>
    </defs>
    
    <!-- Brain background -->
    <circle cx="200" cy="150" r="100" fill="rgba(108, 49, 255, 0.05)" />
    <circle cx="200" cy="150" r="80" fill="rgba(108, 49, 255, 0.1)" />
    
    <!-- Brain structure -->
    <path d="M170 180C150 170 140 150 150 130C160 110 150 100 130 110C110 120 120 150 140 160" stroke="url(#gradient1)" stroke-width="3" stroke-linecap="round" filter="url(#glow)" />
    <path d="M230 180C250 170 260 150 250 130C240 110 250 100 270 110C290 120 280 150 260 160" stroke="url(#gradient2)" stroke-width="3" stroke-linecap="round" filter="url(#glow)" />
    <path d="M160 100C170 80 190 70 210 80C230 90 250 80 260 100" stroke="url(#gradient3)" stroke-width="3" stroke-linecap="round" filter="url(#glow)" />
    
    <!-- Data nodes -->
    <circle cx="130" cy="110" r="5" fill="#6c31ff" />
    <circle cx="150" cy="130" r="5" fill="#2b3af9" />
    <circle cx="140" cy="160" r="5" fill="#00c8ff" />
    <circle cx="170" cy="180" r="5" fill="#00e376" />
    
    <circle cx="270" cy="110" r="5" fill="#6c31ff" />
    <circle cx="250" cy="130" r="5" fill="#2b3af9" />
    <circle cx="260" cy="160" r="5" fill="#00c8ff" />
    <circle cx="230" cy="180" r="5" fill="#00e376" />
    
    <circle cx="160" cy="100" r="5" fill="#6c31ff" />
    <circle cx="210" cy="80" r="5" fill="#00c8ff" />
    <circle cx="260" cy="100" r="5" fill="#00e376" />
    
    <!-- Data connections -->
    <line x1="130" y1="110" x2="150" y2="130" stroke="#6c31ff" stroke-width="1" opacity="0.5" />
    <line x1="150" y1="130" x2="140" y2="160" stroke="#2b3af9" stroke-width="1" opacity="0.5" />
    <line x1="140" y1="160" x2="170" y2="180" stroke="#00c8ff" stroke-width="1" opacity="0.5" />
    
    <line x1="270" y1="110" x2="250" y2="130" stroke="#6c31ff" stroke-width="1" opacity="0.5" />
    <line x1="250" y1="130" x2="260" y2="160" stroke="#2b3af9" stroke-width="1" opacity="0.5" />
    <line x1="260" y1="160" x2="230" y2="180" stroke="#00c8ff" stroke-width="1" opacity="0.5" />
    
    <line x1="160" y1="100" x2="210" y2="80" stroke="#6c31ff" stroke-width="1" opacity="0.5" />
    <line x1="210" y1="80" x2="260" y2="100" stroke="#00c8ff" stroke-width="1" opacity="0.5" />
    
    <line x1="160" y1="100" x2="130" y2="110" stroke="#6c31ff" stroke-width="1" opacity="0.5" />
    <line x1="260" y1="100" x2="270" y2="110" stroke="#00e376" stroke-width="1" opacity="0.5" />
    
    <line x1="170" y1="180" x2="230" y2="180" stroke="#00e376" stroke-width="1" opacity="0.5" />
    
    <!-- Central data flow -->
    <path d="M180 150 C 190 130, 210 130, 220 150" stroke="url(#gradient2)" stroke-width="3" stroke-linecap="round" filter="url(#glow)" />
    <path d="M170 130 C 180 150, 220 150, 230 130" stroke="url(#gradient1)" stroke-width="3" stroke-linecap="round" filter="url(#glow)" />
    
    <!-- Trading graph -->
    <path d="M120 220 L 140 200 L 160 210 L 180 190 L 200 210 L 220 180 L 240 200 L 260 170 L 280 190" stroke="url(#gradient3)" stroke-width="3" stroke-linecap="round" />
    
    <!-- Highlight dots -->
    <circle cx="140" cy="200" r="3" fill="white" />
    <circle cx="180" cy="190" r="3" fill="white" />
    <circle cx="220" cy="180" r="3" fill="white" />
    <circle cx="260" cy="170" r="3" fill="white" />
    
    <!-- Market data decorative icons -->
    <rect x="310" y="100" width="20" height="20" rx="5" fill="#6c31ff" opacity="0.7" />
    <rect x="310" y="130" width="20" height="20" rx="5" fill="#2b3af9" opacity="0.7" />
    <rect x="310" y="160" width="20" height="20" rx="5" fill="#00c8ff" opacity="0.7" />
    <rect x="310" y="190" width="20" height="20" rx="5" fill="#00e376" opacity="0.7" />
    
    <rect x="70" y="100" width="20" height="20" rx="5" fill="#6c31ff" opacity="0.7" />
    <rect x="70" y="130" width="20" height="20" rx="5" fill="#2b3af9" opacity="0.7" />
    <rect x="70" y="160" width="20" height="20" rx="5" fill="#00c8ff" opacity="0.7" />
    <rect x="70" y="190" width="20" height="20" rx="5" fill="#00e376" opacity="0.7" />
</svg> 